<svg width="131" height="26" viewBox="0 0 131 26" fill="none" xmlns="http://www.w3.org/2000/svg">
<path d="M17.5496 16.8C16.8296 19.05 14.8496 21.3 11.3996 21.3C7.46961 21.3 4.49961 18.3 4.49961 13.5C4.49961 8.69995 7.46961 5.69995 11.3996 5.69995C14.0696 5.69995 16.4996 7.19995 17.5496 10.05H20.8496C19.9796 6.29995 16.6496 2.69995 11.3996 2.69995C5.87961 2.69995 1.34961 7.04995 1.34961 13.5C1.34961 19.95 5.87961 24.3 11.3996 24.3C17.0696 24.3 20.1296 20.1 20.8496 16.8L17.5496 16.8Z" fill="#1F2020"/>
<path d="M33.3137 24.3C38.8337 24.3 43.3637 19.95 43.3637 13.5C43.3637 7.04995 38.8337 2.69995 33.3137 2.69995C27.7937 2.69995 23.2637 7.04995 23.2637 13.5C23.2637 19.95 27.7937 24.3 33.3137 24.3ZM33.3137 5.69995C37.2437 5.69995 40.2137 8.69995 40.2137 13.5C40.2137 18.3 37.2437 21.3 33.3137 21.3C29.3837 21.3 26.4137 18.3 26.4137 13.5C26.4137 8.69995 29.3837 5.69995 33.3137 5.69995Z" fill="#1F2020"/>
<path d="M46.9566 24L60.3066 24V21L50.1066 21V2.99995L46.9566 2.99995V24Z" fill="#1F2020"/>
<path d="M71.1066 24.3C76.6266 24.3 81.1566 19.95 81.1566 13.5C81.1566 7.04995 76.6266 2.69995 71.1066 2.69995C65.5866 2.69995 61.0566 7.04995 61.0566 13.5C61.0566 19.95 65.5866 24.3 71.1066 24.3ZM71.1066 5.69995C75.0366 5.69995 78.0066 8.69995 78.0066 13.5C78.0066 18.3 75.0366 21.3 71.1066 21.3C67.1766 21.3 64.2066 18.3 64.2066 13.5C64.2066 8.69995 67.1766 5.69995 71.1066 5.69995Z" fill="#1F2020"/>
<path d="M84.7496 24H87.8996V16.5H89.3996L96.8996 24L100.95 24L93.4496 16.5H94.1996C97.6496 16.5 100.35 13.83 100.35 9.74995C100.35 5.66995 97.6496 2.99995 94.1996 2.99995L84.7496 2.99995V24ZM87.8996 13.5V5.99995L94.0496 5.99995C95.7296 5.99995 97.1996 7.49995 97.1996 9.74995C97.1996 12 95.7296 13.5 94.0496 13.5H87.8996Z" fill="#1F2020"/>
<path d="M103.211 17.55C103.211 21.3 106.211 24.3 111.461 24.3C116.711 24.3 119.411 21.6 119.411 18.15C119.411 14.82 117.491 13.05 113.261 12.3L109.961 11.7C107.681 11.25 106.811 10.2 106.811 8.84995C106.811 7.16995 108.311 5.69995 111.161 5.69995C114.161 5.69995 115.961 7.49995 115.961 9.44995H119.111C119.111 5.69995 116.411 2.69995 111.161 2.69995C106.511 2.69995 103.661 5.39995 103.661 8.84995C103.661 11.73 105.281 13.8 108.611 14.4L112.661 15.15C115.061 15.6 116.261 16.62 116.261 18.15C116.261 19.95 114.911 21.3 111.461 21.3C108.341 21.3 106.361 19.5 106.361 17.55L103.211 17.55Z" fill="#1F2020"/>
<path d="M131 6C131 8.20914 129.209 10 127 10C124.791 10 123 8.20914 123 6C123 3.79086 124.791 2 127 2C129.209 2 131 3.79086 131 6Z" fill="#1F2020"/>
</svg>
